<?xml version="1.0" standalone="no"?>
<!DOCTYPE svg PUBLIC "-//W3C//DTD SVG 20010904//EN"
 "http://www.w3.org/TR/2001/REC-SVG-20010904/DTD/svg10.dtd">
<svg version="1.0" xmlns="http://www.w3.org/2000/svg"
 width="260.000000pt" height="260.000000pt" viewBox="0 0 260.000000 260.000000"
 preserveAspectRatio="xMidYMid meet">
<metadata>
Created by potrace 1.11, written by Peter Selinger 2001-2013
</metadata>
<g transform="translate(0.000000,260.000000) scale(0.100000,-0.100000)"
fill="#000000" stroke="none">
<path d="M281 2313 c-24 -9 -63 -35 -86 -58 -78 -77 -75 -45 -75 -875 0 -830
-3 -798 75 -875 77 -78 41 -75 904 -75 l766 -1 137 -147 c112 -120 143 -148
167 -150 54 -4 61 14 61 164 0 123 1 134 18 134 44 0 118 35 157 75 78 77 75
45 75 875 0 830 3 798 -75 875 -79 79 -17 75 -1109 74 -853 0 -976 -2 -1015
-16z m1549 -147 c331 -6 389 -10 482 -28 57 -11 57 -11 63 -52 3 -22 5 -356 3
-741 -3 -642 -4 -703 -20 -732 -29 -53 -69 -74 -153 -80 l-75 -6 0 -106 -1
-106 -208 213 c-211 216 -231 230 -265 196 -32 -31 -20 -65 46 -131 l62 -63
-696 0 c-544 0 -698 3 -706 13 -12 15 -29 101 -37 187 -3 36 -7 90 -10 120 -7
80 -20 620 -20 800 1 244 44 394 128 443 88 52 161 69 332 75 181 8 611 7
1075 -2z"/>
<path d="M1049 1471 c-23 -23 -29 -38 -29 -71 0 -91 106 -135 171 -71 64 65
20 171 -71 171 -33 0 -48 -6 -71 -29z"/>
<path d="M1409 1471 c-23 -23 -29 -38 -29 -71 0 -33 6 -48 29 -71 65 -64 171
-20 171 71 0 33 -6 48 -29 71 -23 23 -38 29 -71 29 -33 0 -48 -6 -71 -29z"/>
<path d="M696 1454 c-57 -58 -17 -154 64 -154 81 0 121 96 64 154 -19 19 -37
26 -64 26 -27 0 -45 -7 -64 -26z"/>
<path d="M1779 1451 c-88 -88 44 -206 140 -125 67 56 22 154 -71 154 -30 0
-46 -7 -69 -29z"/>
</g>
</svg>
